<svg xmlns="http://www.w3.org/2000/svg" width="107.221" height="55.065" viewBox="0 0 107.221 55.065"><defs><style>.a,.b{fill:#fff;}.a{fill-rule:evenodd;}</style></defs><path class="a" d="M1894.539,2479.367l4.243,2.452,4.243,2.452v9.809l-4.243,2.452-4.243,2.452-4.243-2.452-4.243-2.452v-9.809l4.243-2.452,4.243-2.452Zm8.5-12.747-3.4,1.959-3.395,1.958v7.837l3.395,1.959,3.4,1.959,3.394-1.959,3.4-1.959v-7.837l-3.4-1.958-3.394-1.959Zm5.113,30.421,2.556,1.468,2.556,1.468v5.872l-2.556,1.467-2.556,1.469-2.557-1.469-2.557-1.467v-5.872l2.557-1.468,2.557-1.468Zm22.1-16.681,3.4,1.959,3.405,1.958v7.835l-3.405,1.958-3.4,1.959-3.405-1.959-3.405-1.958v-7.835l3.405-1.958,3.405-1.959Zm-6.985-21.716-5.1,2.941-5.1,2.942V2476.3l5.1,2.941,5.1,2.942,5.1-2.942,5.1-2.941v-11.768l-5.1-2.942-5.1-2.941Zm.174,35.431-4.247,2.455-4.248,2.454v9.817l4.248,2.454,4.247,2.455,4.248-2.455,4.248-2.454v-9.817l-4.248-2.454Z" transform="translate(-1886.053 -2458.643)"/><path class="b" d="M1965.657,2474.157v9.73a10.881,10.881,0,0,0,.828,4.533,5.516,5.516,0,0,0,2.374,2.622,7.7,7.7,0,0,0,3.761.841,8.226,8.226,0,0,0,3.912-.862,5.764,5.764,0,0,0,2.488-2.631,10.172,10.172,0,0,0,.871-4.452v-9.782h-3.933v10.015a5.863,5.863,0,0,1-.828,3.442,2.758,2.758,0,0,1-2.381,1.113,2.69,2.69,0,0,1-2.325-1.143,5.9,5.9,0,0,1-.832-3.412v-10.015Zm20.073,17.443h3.934v-7.014h6.263v-3.209h-6.263v-3.985h6.7v-3.235H1985.73V2491.6Zm30.063-9.964H2009.3v3.08h2.691v3.65a3.04,3.04,0,0,1-.743.163,9.209,9.209,0,0,1-1.172.069,6.318,6.318,0,0,1-2.225-.38,4.849,4.849,0,0,1-1.743-1.112,4.942,4.942,0,0,1-1.139-1.79,6.835,6.835,0,0,1-.405-2.411,6.524,6.524,0,0,1,.445-2.484,4.745,4.745,0,0,1,1.221-1.772,5.236,5.236,0,0,1,1.841-1.062,7.252,7.252,0,0,1,2.29-.348,13.759,13.759,0,0,1,1.687.095,8.666,8.666,0,0,1,1.3.267,6.872,6.872,0,0,1,1.048.393l.829-3.213a8.044,8.044,0,0,0-1.135-.371,13.845,13.845,0,0,0-1.639-.307,17.523,17.523,0,0,0-2.066-.124,12.367,12.367,0,0,0-3.964.607,9.172,9.172,0,0,0-3.153,1.777,8.043,8.043,0,0,0-2.084,2.864,9.853,9.853,0,0,0-.763,3.886,10.052,10.052,0,0,0,.288,2.441,8.728,8.728,0,0,0,.833,2.148,7.436,7.436,0,0,0,1.337,1.751,7.79,7.79,0,0,0,2.955,1.738,13.031,13.031,0,0,0,4.136.591,16.741,16.741,0,0,0,2.264-.164,20.149,20.149,0,0,0,2.02-.38q.924-.227,1.539-.44Z" transform="translate(-1908.754 -2463.016)"/><g transform="translate(56.853 34.435)"><path class="a" d="M1965.606,2506.881v2.2c0,1.254.581,1.812,1.578,1.812,1.032,0,1.648-.58,1.648-1.8v-2.217h-.891v2.269c0,.7-.257,1.032-.727,1.032-.451,0-.715-.346-.715-1.032v-2.269Zm5.809,3.952v-1.19c0-.646-.012-1.2-.041-1.73h.023a14.194,14.194,0,0,0,.686,1.4l.845,1.525h.938v-3.952h-.821v1.15a16.5,16.5,0,0,0,.069,1.653h-.011a12.453,12.453,0,0,0-.646-1.354l-.821-1.448h-1.044v3.952Zm4.22-3.952v3.952h.891v-3.952Zm4.629,3.952,1.332-3.952h-.95l-.5,1.689c-.135.45-.259.92-.357,1.4h-.019c-.094-.493-.217-.938-.351-1.414l-.481-1.671h-.979l1.267,3.952Zm5.093-2.4H1983.9v-.822h1.542v-.733h-2.433v3.952h2.516v-.733H1983.9v-.938h1.454v-.727Zm1.769,2.4h.885v-1.56h.264c.37.006.54.134.651.635a5.211,5.211,0,0,0,.269.925h.915c-.077-.154-.194-.672-.317-1.124a.987.987,0,0,0-.527-.735v-.017a1.046,1.046,0,0,0,.7-.965.987.987,0,0,0-.37-.823,1.976,1.976,0,0,0-1.278-.317,6.985,6.985,0,0,0-1.19.088v3.894Zm.885-3.284a1.767,1.767,0,0,1,.405-.029c.41,0,.657.187.657.543s-.265.566-.711.566h-.352v-1.08Zm3.428,3.1a2.571,2.571,0,0,0,1.119.247c1.085,0,1.589-.563,1.589-1.225,0-.564-.323-.926-1.02-1.185-.516-.2-.733-.31-.733-.562,0-.2.187-.381.575-.381a1.849,1.849,0,0,1,.821.187l.2-.715a2.311,2.311,0,0,0-1.009-.2c-.927,0-1.5.51-1.5,1.185,0,.58.435.944,1.091,1.178.475.165.662.311.662.552,0,.263-.217.433-.627.433a2.253,2.253,0,0,1-.991-.247l-.182.733Zm4.313-3.77v3.952h.891v-3.952Zm2.653,3.934a7.378,7.378,0,0,0,1.014.06,2.857,2.857,0,0,0,1.83-.511,2.023,2.023,0,0,0,.651-1.6,1.762,1.762,0,0,0-.669-1.5,2.541,2.541,0,0,0-1.623-.41,7.187,7.187,0,0,0-1.2.088v3.875Zm.891-3.242a1.876,1.876,0,0,1,.405-.036,1.13,1.13,0,0,1,1.255,1.255,1.231,1.231,0,0,1-1.349,1.384,1.635,1.635,0,0,1-.311-.018v-2.585Zm6.23,2.246.305,1.014h.962l-1.231-3.952H2004.4l-1.207,3.952h.927l.275-1.014Zm-1.008-.669.24-.839c.059-.229.123-.527.176-.762h.017c.059.229.129.528.194.762l.247.839Zm3.792,1.665a7.353,7.353,0,0,0,1.014.06,2.851,2.851,0,0,0,1.828-.511,2.019,2.019,0,0,0,.651-1.6,1.765,1.765,0,0,0-.668-1.5,2.544,2.544,0,0,0-1.624-.41,7.165,7.165,0,0,0-1.2.088v3.875Zm.891-3.242a1.88,1.88,0,0,1,.4-.036,1.13,1.13,0,0,1,1.255,1.255,1.232,1.232,0,0,1-1.349,1.384,1.634,1.634,0,0,1-.311-.018v-2.585Zm6.53.862h-1.455v-.822h1.543v-.733h-2.434v3.952h2.516v-.733h-1.625v-.938h1.455Z" transform="translate(-1965.592 -2506.816)"/><path class="a" d="M1965.587,2518.667h.891v-1.589h1.418v-.727h-1.418v-.9H1968v-.733h-2.41v3.952Zm5.269-2.4H1969.4v-.822h1.542v-.733h-2.433v3.952h2.515v-.733H1969.4V2517h1.454v-.726Zm.78,2.38a7.36,7.36,0,0,0,1.014.059,2.831,2.831,0,0,0,1.829-.511,2.006,2.006,0,0,0,.651-1.6,1.774,1.774,0,0,0-.668-1.5,2.566,2.566,0,0,0-1.625-.41,7.174,7.174,0,0,0-1.2.088v3.876Zm.891-3.242a1.887,1.887,0,0,1,.4-.035,1.128,1.128,0,0,1,1.254,1.254,1.23,1.23,0,0,1-1.349,1.383,1.719,1.719,0,0,1-.31-.017v-2.585Zm5.541.862h-1.453v-.822h1.541v-.733h-2.433v3.952h2.515v-.733h-1.623V2517h1.453v-.726Zm.781,2.4h.885v-1.56H1980c.369,0,.538.135.65.636a5.044,5.044,0,0,0,.269.924h.916c-.076-.154-.194-.67-.317-1.124a.983.983,0,0,0-.528-.734v-.018a1.046,1.046,0,0,0,.7-.965,1,1,0,0,0-.369-.823,2,2,0,0,0-1.279-.317,6.976,6.976,0,0,0-1.189.088v3.893Zm.885-3.283a1.739,1.739,0,0,1,.4-.03c.411,0,.657.187.657.543s-.264.565-.709.565h-.352v-1.079Zm4.7,2.269.3,1.014h.962l-1.232-3.952H1983.3l-1.208,3.952h.927l.275-1.014Zm-1.009-.668.24-.838c.066-.228.124-.528.176-.763h.018c.058.229.124.529.193.763l.246.838Zm2.75,1.683h2.463v-.751h-1.571v-3.2h-.891v3.952Zm4.345-.017a7.348,7.348,0,0,0,1.014.059,2.855,2.855,0,0,0,1.829-.511,2.021,2.021,0,0,0,.651-1.6,1.765,1.765,0,0,0-.669-1.5,2.541,2.541,0,0,0-1.623-.41,7.175,7.175,0,0,0-1.2.088v3.876Zm.891-3.242a1.9,1.9,0,0,1,.4-.035,1.129,1.129,0,0,1,1.255,1.254,1.23,1.23,0,0,1-1.348,1.383,1.735,1.735,0,0,1-.312-.017v-2.585Zm5.541.862h-1.454v-.822h1.542v-.733H1994.6v3.952h2.516v-.733h-1.624V2517h1.454v-.726Zm6.032.141h-1.473v.7h.61v.827a1.366,1.366,0,0,1-.434.053,1.186,1.186,0,0,1-1.249-1.29,1.2,1.2,0,0,1,1.314-1.284,2.052,2.052,0,0,1,.914.171l.188-.728a3,3,0,0,0-1.1-.182,2.041,2.041,0,0,0-2.258,2.07,1.968,1.968,0,0,0,.557,1.436,2.223,2.223,0,0,0,1.607.529,4.43,4.43,0,0,0,1.319-.224v-2.075Zm2.38,2.323a1.877,1.877,0,0,0,1.934-2.083,1.842,1.842,0,0,0-1.876-2,1.916,1.916,0,0,0-1.924,2.07,1.847,1.847,0,0,0,1.859,2.012Zm.029-.711c-.6,0-.956-.58-.956-1.325s.346-1.337.961-1.337.95.61.95,1.32c0,.773-.346,1.342-.95,1.342Zm2.5-3.307v3.952h.891v-3.952Zm3.717,2.938.305,1.014h.961l-1.231-3.952h-1.167l-1.207,3.952h.926l.276-1.014Zm-1.009-.668.241-.838c.059-.23.123-.528.175-.763h.018c.059.229.129.528.194.763l.246.838Zm.6-3.219-.51.739h.7l.733-.739Zm2.046,4.72a2.572,2.572,0,0,0,1.119.247c1.085,0,1.59-.564,1.59-1.227,0-.563-.323-.927-1.021-1.184-.516-.2-.733-.312-.733-.563,0-.2.187-.381.574-.381a1.859,1.859,0,0,1,.821.187l.2-.716a2.325,2.325,0,0,0-1.009-.2c-.927,0-1.5.51-1.5,1.184,0,.581.435.944,1.091,1.18.475.164.662.31.662.55,0,.264-.216.435-.627.435a2.262,2.262,0,0,1-.991-.247Z" transform="translate(-1965.587 -2508.798)"/></g></svg>